<svg width="396" height="116" viewBox="0 0 396 116" fill="none" xmlns="http://www.w3.org/2000/svg">
<mask id="mask0_2464_60" style="mask-type:luminance" maskUnits="userSpaceOnUse" x="0" y="0" width="109" height="116">
<path d="M0 0H108.375V115.996H0V0Z" fill="white"/>
</mask>
<g mask="url(#mask0_2464_60)">
<path d="M73.148 82.7892C72.7404 81.1054 71.2161 79.8603 69.4082 79.8603C68.7923 79.8603 68.234 80.0109 67.7111 80.2679L53.7931 63.7489C55.2997 62.3664 56.2435 60.3813 56.2435 58.1746C56.2435 56.4066 55.6409 54.7893 54.6306 53.5043L69.3152 36.2852C69.9444 36.7504 70.7242 37.0252 71.575 37.0252C73.1214 37.0252 74.4508 36.1079 75.0667 34.7919H108.535L95.711 13.926C96.6991 12.8183 97.3018 11.3649 97.3018 9.77854C97.3018 6.32674 94.5058 3.51745 91.0407 3.51745C88.2314 3.51745 85.8475 5.3652 85.0676 7.91307H42.1084C41.6432 3.49086 37.9033 0.0390625 33.3571 0.0390625C28.4918 0.0390625 24.5481 3.98271 24.5481 8.84802C24.5481 11.7504 25.9572 14.3115 28.124 15.9156L7.46635 51.1204C7.06755 51.0362 6.67318 50.9963 6.2478 50.9963C2.796 50.9963 0 53.8056 0 57.2574C0 60.7092 2.796 63.5185 6.2611 63.5185C6.31427 63.5185 6.35415 63.5185 6.39846 63.5008L28.6291 102.078C26.6839 103.531 25.4255 105.831 25.4255 108.432C25.4255 112.819 28.9703 116.363 33.3571 116.363C37.0969 116.363 40.2341 113.762 41.0671 110.271H83.3395C84.177 113.762 87.3009 116.363 91.054 116.363C95.4363 116.363 98.9856 112.819 98.9856 108.432C98.9856 106.092 97.9576 103.996 96.3402 102.543L108.548 82.7892H73.148ZM66.302 81.4466C65.8368 82.0758 65.562 82.8601 65.562 83.7064C65.562 85.8466 67.2857 87.5703 69.4215 87.5703C70.0419 87.5703 70.6002 87.4197 71.123 87.1582L84.8771 103.46C83.7782 104.816 83.1224 106.544 83.1224 108.418H41.2887C41.2887 105.419 39.6137 102.818 37.1633 101.475L47.6694 65.7075C47.984 65.7473 48.3163 65.7784 48.6442 65.7784C49.9603 65.7784 51.2054 65.4327 52.2866 64.8434L66.302 81.4466ZM42.1084 9.76525H84.7929C84.7929 11.2452 85.3157 12.6011 86.1621 13.669L72.6828 29.4746C72.3283 29.3683 71.9694 29.2974 71.5883 29.2974C69.4525 29.2974 67.7244 31.0255 67.7244 33.1613C67.7244 33.7639 67.8751 34.3266 68.1232 34.8318L53.3146 52.2016C52.0251 51.2001 50.4122 50.5975 48.6575 50.5975C48.1214 50.5975 47.5896 50.6551 47.0801 50.7615L36.7956 16.9569C39.6713 15.7206 41.7672 13.0088 42.1084 9.76525ZM75.4079 32.9264C75.3547 31.956 74.9426 31.0787 74.3001 30.4229L87.518 14.9274C88.5194 15.6143 89.7379 16.0086 91.0407 16.0086C92.2193 16.0086 93.3271 15.6807 94.2576 15.1047L105.202 32.9131H75.4079V32.9264ZM29.7236 16.8594C30.8358 17.3645 32.0543 17.6525 33.3571 17.6525C33.9154 17.6525 34.4781 17.5994 35.0143 17.4886L45.3165 51.3641C42.8351 52.5693 41.1247 55.0906 41.0538 58.0107L12.4912 57.4214C12.4912 57.3638 12.5045 57.3106 12.5045 57.2574C12.5045 54.8868 11.1929 52.8175 9.24763 51.7629L29.7236 16.8594ZM8.3304 63.1463C10.1383 62.5171 11.5474 61.077 12.1633 59.2691L41.2444 59.8717C41.8071 62.3398 43.5618 64.3383 45.8748 65.2422L35.4397 100.788C34.7794 100.611 34.0838 100.5 33.3571 100.5C32.2449 100.5 31.1903 100.735 30.2332 101.147L8.3304 63.1463ZM91.054 100.5C89.2328 100.5 87.5446 101.134 86.2064 102.162L72.5321 85.953C72.8201 85.5586 73.0284 85.1067 73.148 84.6237H105.216L94.8337 101.448C93.6993 100.859 92.4099 100.5 91.054 100.5Z" fill="#2C82FE"/>
</g>
<path d="M142.148 41.4238H159.461C160.669 41.4238 161.679 41.8353 162.502 42.653C163.32 43.4759 163.731 44.4863 163.731 45.6947V49.7363H157.523V48.0905C157.523 47.7572 157.409 47.4863 157.19 47.278C156.981 47.0697 156.711 46.9655 156.377 46.9655H145.252C144.919 46.9655 144.633 47.0697 144.398 47.278C144.174 47.4863 144.065 47.7572 144.065 48.0905V64.6947C144.065 65.028 144.174 65.2988 144.398 65.5072C144.633 65.7155 144.919 65.8197 145.252 65.8197H156.377C156.711 65.8197 156.981 65.7155 157.19 65.5072C157.409 65.2988 157.523 65.028 157.523 64.6947V60.4238H151.336V54.8822H163.731V67.0905C163.731 68.2728 163.32 69.278 162.502 70.1113C161.679 70.9447 160.669 71.3613 159.461 71.3613H142.148C140.966 71.3613 139.961 70.9447 139.127 70.1113C138.294 69.278 137.877 68.2728 137.877 67.0905V45.6947C137.877 44.4863 138.294 43.4759 139.127 42.653C139.961 41.8353 140.966 41.4238 142.148 41.4238Z" fill="black"/>
<path d="M168.384 41.4238H189.968C191.176 41.4238 192.186 41.8353 193.009 42.653C193.827 43.4759 194.239 44.4863 194.239 45.6947V56.9238C194.239 58.1061 193.827 59.1113 193.009 59.9447C192.186 60.778 191.176 61.1947 189.968 61.1947H189.655L196.551 71.3613H189.009L182.114 61.1947H174.572V71.3613H168.384V41.4238ZM174.572 55.653H186.884C187.218 55.653 187.489 55.5592 187.697 55.3613C187.916 55.153 188.03 54.8822 188.03 54.5488V48.0905C188.03 47.7572 187.916 47.4863 187.697 47.278C187.489 47.0697 187.218 46.9655 186.884 46.9655H174.572V55.653Z" fill="black"/>
<path d="M203.316 41.4238H220.629C221.389 41.4238 222.097 41.6217 222.754 42.0072C223.405 42.3822 223.925 42.903 224.316 43.5697C224.702 44.2259 224.899 44.9342 224.899 45.6947V67.0905C224.899 67.8561 224.702 68.5645 224.316 69.2155C223.925 69.8561 223.405 70.377 222.754 70.778C222.097 71.1686 221.389 71.3613 220.629 71.3613H203.316C202.535 71.3613 201.827 71.1686 201.191 70.778C200.55 70.377 200.03 69.8561 199.629 69.2155C199.238 68.5645 199.045 67.8561 199.045 67.0905V45.6947C199.045 44.9342 199.238 44.2259 199.629 43.5697C200.03 42.903 200.55 42.3822 201.191 42.0072C201.827 41.6217 202.535 41.4238 203.316 41.4238ZM206.42 46.9655C206.087 46.9655 205.8 47.0697 205.566 47.278C205.342 47.4863 205.233 47.7572 205.233 48.0905V64.6947C205.233 65.028 205.342 65.2988 205.566 65.5072C205.8 65.7155 206.087 65.8197 206.42 65.8197H217.545C217.879 65.8197 218.149 65.7155 218.358 65.5072C218.577 65.2988 218.691 65.028 218.691 64.6947V48.0905C218.691 47.7572 218.577 47.4863 218.358 47.278C218.149 47.0697 217.879 46.9655 217.545 46.9655H206.42Z" fill="black"/>
<path d="M227.615 41.4238H234.052L239.011 61.903L244.094 41.4238H250.281L255.365 61.903L260.323 41.4238H266.761L258.511 71.3613H252.323L247.177 50.653L242.052 71.3613H235.865L227.615 41.4238Z" fill="black"/>
<path d="M269.446 41.4238H291.029C292.238 41.4238 293.248 41.8353 294.071 42.653C294.889 43.4759 295.3 44.4863 295.3 45.6947V52.3822C295.3 53.3145 295.04 54.1426 294.529 54.8613C294.014 55.5697 293.347 56.0853 292.529 56.403C293.347 56.7103 294.014 57.2311 294.529 57.9655C295.04 58.6895 295.3 59.5072 295.3 60.4238V67.0905C295.3 68.2728 294.889 69.278 294.071 70.1113C293.248 70.9447 292.238 71.3613 291.029 71.3613H269.446V41.4238ZM275.634 59.1738V65.8197H287.946C288.279 65.8197 288.55 65.7155 288.759 65.5072C288.977 65.2988 289.092 65.028 289.092 64.6947V60.7363C289.092 60.3092 288.946 59.9395 288.654 59.6322C288.363 59.3301 287.998 59.1738 287.571 59.1738H275.634ZM275.634 53.6322H287.571C287.998 53.6322 288.363 53.4759 288.654 53.153C288.946 52.8197 289.092 52.4551 289.092 52.0488V48.0905C289.092 47.7572 288.977 47.4863 288.759 47.278C288.55 47.0697 288.279 46.9655 287.946 46.9655H275.634V53.6322Z" fill="black"/>
<path d="M299.953 41.4238H306.141V71.3613H299.953V41.4238Z" fill="black"/>
<path d="M308.864 41.4238H334.739V46.9655H324.927V71.3613H318.677V46.9655H308.864V41.4238Z" fill="black"/>
<path d="M336.608 55.9023H353.962V60.8607H336.608V55.9023Z" fill="black"/>
<path d="M366.149 41.4238H376.087L386.441 71.3613H379.941L377.691 65.0488H364.587L362.337 71.3613H355.837L366.149 41.4238ZM366.503 59.5072H375.732L371.128 46.4238L366.503 59.5072Z" fill="black"/>
<path d="M389.127 41.4238H395.315V71.3613H389.127V41.4238Z" fill="black"/>
</svg>
